Genre: Crime | Drama | Thriller
Language:English
 
http://www.imdb.com/title/tt0780504/

Source:Blu-ray 1080p Thanks!


Format : MPEG-4
Format profile : Base Media
Codec ID : isom
File size : 1.32 GiB
Duration : 1h 40mn
Overall bit rate : 1 880 Kbps

Video
ID : 1
Format : AVC
Format/Info : Advanced Video Codec
Format profile : High@L5.1
Format settings, CABAC : Yes
Format settings, ReFrames : 3 frames
Codec ID : avc1
Codec ID/Info : Advanced Video Coding
Duration : 1h 40mn
Bit rate mode : Variable
Bit rate : 1 500 Kbps
Maximum bit rate : 8 233 Kbps
Width : 720 pixels
Height : 304 pixels
Display aspect ratio : 2.35:1
Frame rate mode : Constant
Frame rate : 23.976 fps
Color space : YUV
Chroma subsampling : 4:2:0
Bit depth : 8 bits
Scan type : Progressive
Bits/(Pixel*Frame) : 0.286
Stream size : 1.01 GiB (76%)
Writing library : x264

Audio
ID : 2
Format : AAC
Format/Info : Advanced Audio Codec
Format version : Version 4
Format profile : LC
Format settings, SBR : No
Codec ID : 40
Duration : 1h 40mn
Bit rate mode : Variable
Bit rate : 442 Kbps
Maximum bit rate : 568 Kbps
Channel(s) : 6 channels
Channel positions : Front: L C R, Side: L R, LFE
Sampling rate : 48.0 KHz
Stream size : 318 MiB (23%)


Plot:
A Hollywood stunt performer who moonlights as a wheelman discovers that a contract has been put on him after a heist gone wrong
